<svg xmlns="http://www.w3.org/2000/svg" viewBox="0 0 86.27 56.02"><defs><style>.cls-1{font-size:13.52px;fill:#fff;font-family:Poppins-Bold, Poppins;}.cls-2{font-weight:700;}.cls-3{font-family:Poppins-Regular, Poppins;}.cls-4,.cls-5{fill:#6c72eb;}.cls-5{fill-rule:evenodd;}</style></defs><title>Asset 2</title><g id="Layer_2" data-name="Layer 2"><g id="letra"><rect x="28.45" y="8.69" width="52.35" height="38.64" transform="translate(-6.6 23.56) rotate(-22.99)"/><text class="cls-1" transform="translate(31.21 27.06)"><tspan class="cls-2">união</tspan><tspan class="cls-3"><tspan x="0.06" y="11.09">Animal</tspan></tspan></text></g><g id="vetor"><path class="cls-4" d="M82,49.29a7.7,7.7,0,0,0-1-1.64,6.38,6.38,0,0,1-.7-1.44,8.78,8.78,0,0,1-.36-1.31c-.13-.59-.16-1.12-.29-1.86.06-.14.12-.29.17-.44a35.78,35.78,0,0,0,2-8h0A35.23,35.23,0,0,0,82,27.5a14.89,14.89,0,0,0-.22-1.87,9.51,9.51,0,0,0-.43-1.47.7.7,0,0,0-.3-.41.55.55,0,0,0-.67.29,1.24,1.24,0,0,0-.06.74,30.8,30.8,0,0,1,.12,5.43A31.69,31.69,0,0,1,78.89,38a2.27,2.27,0,0,1-.66,1.11,1.58,1.58,0,0,1-.71.28h0a18,18,0,0,0-6-.61c-2.09.08-4.17.37-6.26.55a1.83,1.83,0,0,1-1.14-.16,1.55,1.55,0,0,1-.47-.55c-.32-.52-.61-1-.89-1.58h0c0-.11,0-.22,0-.33v0a5.48,5.48,0,0,0-.45-1.46,2.52,2.52,0,0,0-.15-.34,1.46,1.46,0,0,0-.33-.37h0c-.13-.53-.19-1.07-.36-1.59a2.79,2.79,0,0,0-.12-.34.43.43,0,0,0-.19-.23c-.16.29-.32.58-.47.88h0a4.87,4.87,0,0,0-.23-.74.39.39,0,0,0-.19-.23c-.3.53-.58,1.08-.83,1.64h0a2.2,2.2,0,0,0-.36,0,2.27,2.27,0,0,0-.73.26h0c-.53.29-.91.78-1.44,1.08-.26.15-.55.24-.81.4a1.21,1.21,0,0,0-.26.2h0a.24.24,0,0,0-.08.09.63.63,0,0,0-.17.39,1.94,1.94,0,0,0,0,.24s0,.08,0,.12,0,0,0,0a2,2,0,0,0,.17.6h0a1.13,1.13,0,0,0,.38.49,2.18,2.18,0,0,0,.62.28c.62.19,1.26.36,1.9.5.07,1,.15,2,.23,3,0,.42.07.85.13,1.27h0a5.5,5.5,0,0,0,.57,1.9c.07.14.15.27.23.4.08.37.15.74.23,1.11s.15.78.23,1.16a22.15,22.15,0,0,1,.4,3.17,1.53,1.53,0,0,1,0,.56,2.44,2.44,0,0,1-.21.43l-.55,1a.85.85,0,0,1-.14.19.92.92,0,0,1-.4.15,1.42,1.42,0,0,0-1,.86c0,.07-.05.14,0,.19a.18.18,0,0,0,.15,0,12,12,0,0,0,1.59,0,1,1,0,0,0,.37-.06,1.09,1.09,0,0,0,.3-.23,7.94,7.94,0,0,0,.9-1.11l.93-1.3a3.11,3.11,0,0,0,.25-.38,1.41,1.41,0,0,1,0,.4,1.93,1.93,0,0,1-.12.41c0,.11-.08.22-.13.33l-.21.57a.48.48,0,0,1-.1.17A.67.67,0,0,1,62,53a1.05,1.05,0,0,0-.78.82.2.2,0,0,0,0,.17.25.25,0,0,0,.17,0A12.05,12.05,0,0,0,63,54a.81.81,0,0,0,.35-.06.78.78,0,0,0,.26-.21,5.65,5.65,0,0,0,.65-1c.22-.41.43-.82.65-1.22a2.91,2.91,0,0,0,.23-.55,2.18,2.18,0,0,0,0-.72c0-.28-.07-.56-.11-.85l0-.22c0-.18,0-.36-.07-.54a5.07,5.07,0,0,1,0-1.4,19.12,19.12,0,0,0,4-.69,19,19,0,0,1,4.48-.73,7.94,7.94,0,0,0,2,2.79c.16.15.33.29.5.42a4.06,4.06,0,0,1,1.07,1A3,3,0,0,1,77,52.29l0,.14a1.27,1.27,0,0,1-.32.63c-.26.26-.77.44-.69.79s.42.35.72.37A2.16,2.16,0,0,0,78.15,54a1.29,1.29,0,0,0,.44-.61,3.66,3.66,0,0,0,.15-.43c.24-.82.49-1.64.73-2.46,0-.13.08-.26.11-.39a3.64,3.64,0,0,1,.59,2.18,1.24,1.24,0,0,1-.14.77c-.2.26-.65.44-.48.79a.77.77,0,0,0,.71.37A1.94,1.94,0,0,0,81.7,54,1.47,1.47,0,0,0,82,53c0-.82,0-1.64.07-2.46A3.3,3.3,0,0,0,82,49.29Z"/><path class="cls-5" d="M6.1,34.29s0,3.26,1.54,4.52c.59.91-1.93,3.2-2.21,3.43s.36,1.07,1.07,1.7a10.35,10.35,0,0,1,2.12,4c.16,1,1.15,1.58,4,.75.07,1.93,1.22,2,2.24,1.69s2.64-.23,1.74-1.61-1.11-.28-1.78-.16-2.48-2.72-2.36-4.5,2.17-1.81,2.64-2.16,3.73-2-1.12-5.72c-1.18-.79,4.08-3.15,5.61-3.86s7.06-.94,5.22-8.72c0,0,2.47,1,4.57-1.89,1.7-2.38,3.4-2,3.79-2,.14,0,2.78.47,4.15-1.22.28-.34.07-.67-.36-.76-1.46-.27-3.16-1.09-4-.38,0,0-3.3,4.15-6.93,3a6.93,6.93,0,0,1,1.76-2.31,3.45,3.45,0,0,0,3.55-.76c.32-.31.16-.62-.28-.67-2.36-.28-3.56-1-4,.06A10.49,10.49,0,0,1,24.12,20c-.21,0-2.74-.84-1.42-4.2s5.2-2.58,6.88-6.05c1.29-2.64.37-4-.51-4.48h0a.65.65,0,0,0-.65-.64.64.64,0,0,0-.64.64.76.76,0,0,0,0,.21c-.54.53-1.4,1.38-5.59.38-1.78-.31-2.73,1.84-2.73,1.84s-3.85-3.59-5.31,3c.09,3,2.58,2.73,3.27,2.09s.2-2.33.83-2.41-.55,7.69-1.26,9.19S9.25,30.43,7,32.48c0,0-3.76-.13-7-7.76C0,24.72.63,31.45,6.1,34.29Zm2.72,7.83a4.47,4.47,0,0,0,2-2c0-.06.11,0,.11,0s1.78.68,1.1,1.71S9.5,43.2,9.55,43.75s2,2.52,2.11,3c.06.26-.27-.12-1.4.64-.52.4-1.8-2.34-1.94-3C8.13,43.62,7.71,42.73,8.82,42.12Z"/></g></g></svg>